<?xml version="1.0" encoding="UTF-8"?>
<svg id="Layer_2" data-name="Layer 2" xmlns="http://www.w3.org/2000/svg" viewBox="0 0 164.86 164.86">
  <defs>
    <style>
      .cls-1 {
        fill: #fcfcfc;
      }
    </style>
  </defs>
  <g id="Layer_1" data-name="Layer 1">
    <g>
      <path class="cls-1" d="M74.09,136.28c-25.09,0-45.51-20.42-45.52-45.52v-33.57c0-10.11,3.31-19.44,8.9-26.99-11.24,8.3-18.52,21.63-18.52,36.62v33.56c0,25.1,20.42,45.52,45.52,45.52h33.56c12.55,0,23.93-5.11,32.17-13.35,1.61-1.61,3.09-3.33,4.45-5.17-7.55,5.59-16.89,8.89-26.99,8.89h-33.57Z"/>
      <path class="cls-1" d="M55.14,155.24c-25.09,0-45.51-20.42-45.52-45.52v-33.57c0-10.11,3.31-19.44,8.9-26.99C7.29,57.45,0,70.79,0,85.78v33.56c0,25.1,20.42,45.52,45.52,45.52h33.56c12.55,0,23.93-5.11,32.17-13.35,1.61-1.61,3.09-3.33,4.45-5.17-7.55,5.59-16.89,8.89-26.99,8.89h-33.57Z"/>
      <path class="cls-1" d="M151.51,111.25c-8.24,8.24-19.62,13.35-32.17,13.35h-33.57c-25.1,0-45.51-20.42-45.51-45.51v-33.57c0-25.1,20.42-45.51,45.51-45.51h33.57c12.16,0,23.59,4.73,32.18,13.33,8.6,8.6,13.33,20.03,13.33,32.18v33.57c0,12.55-5.1,23.93-13.35,32.17ZM119.34,105.16c14.38,0,26.08-11.7,26.08-26.08v-33.57c0-6.97-2.71-13.52-7.64-18.44-4.93-4.93-11.48-7.64-18.44-7.64h-33.57c-14.38,0-26.08,11.7-26.08,26.08v33.57c0,14.38,11.7,26.08,26.08,26.08h33.57Z"/>
      <path class="cls-1" d="M119.37,55.24v14.1c0,8.3-6.71,15.04-15.01,15.04-3.55-.01-7.11-.02-10.66-.03-2.47,0-4.48-2.02-4.48-4.49v-35.1c0-2.47,2-4.48,4.48-4.49,3.55-.01,7.11-.02,10.66-.03,8.3,0,15.01,6.71,15.01,15.01Z"/>
    </g>
  </g>
</svg>