<?xml version="1.0" encoding="UTF-8"?>
<svg width="32" height="32" viewBox="0 0 32 32" fill="none" xmlns="http://www.w3.org/2000/svg">
  <rect width="32" height="32" rx="8" fill="#17B2FF"/>
  <path d="M8 10.5C8 9.11929 9.11929 8 10.5 8H21.5C22.8807 8 24 9.11929 24 10.5V21.5C24 22.8807 22.8807 24 21.5 24H10.5C9.11929 24 8 22.8807 8 21.5V10.5Z" fill="white"/>
  <path d="M12 13.5C12 12.6716 12.6716 12 13.5 12H18.5C19.3284 12 20 12.6716 20 13.5V18.5C20 19.3284 19.3284 20 18.5 20H13.5C12.6716 20 12 19.3284 12 18.5V13.5Z" fill="#17B2FF"/>
</svg>
