<?xml version="1.0" encoding="UTF-8"?>
<svg id="Layer_2" data-name="Layer 2" xmlns="http://www.w3.org/2000/svg" viewBox="0 0 547.62 127.77">
  <defs>
    <style>
      .cls-1 {
        fill: #a76052;
      }

      .cls-2 {
        fill: #fcfcfc;
      }
    </style>
  </defs>
  <g id="Layer_1" data-name="Layer 1">
    <g>
      <g>
        <path class="cls-2" d="M145.25,104.74V32.25c0-.31.2-.51.51-.51h23.43c20.61,0,34.96,13.79,34.96,36.71s-14.35,36.81-34.96,36.81h-23.43c-.31,0-.51-.2-.51-.51ZM191.95,68.45c0-16.25-8.92-25.94-22.76-25.94h-11.28c-.31,0-.51.21-.51.51v51.01c0,.31.2.51.51.51h11.28c13.84,0,22.76-9.74,22.76-26.09Z"/>
        <path class="cls-2" d="M210.86,79.31c0-16.61,10.71-27.07,25.07-27.07,6,0,11.38,1.9,14.97,5.38.31.31.62.21.72-.15l.97-3.74c.05-.26.26-.46.56-.46h9.38c.31,0,.51.2.51.51v50.96c0,.31-.2.51-.51.51h-9.38c-.31,0-.46-.15-.56-.41l-1.23-4.2c-.1-.36-.36-.51-.62-.26-3.54,3.79-9.07,5.89-15.28,5.89-13.89,0-24.61-10.25-24.61-26.97ZM251.97,79.31c0-10.51-6.31-17.33-14.71-17.33s-14.76,6.82-14.76,17.33,6.31,17.22,14.76,17.22,14.71-6.66,14.71-17.22Z"/>
        <path class="cls-2" d="M279.39,94.03v-31.17c0-.31-.21-.51-.51-.51h-9.64c-.31,0-.51-.2-.51-.51v-8.05c0-.31.2-.51.51-.51h5.18c3.54,0,5.54-2,5.54-5.59v-9.07c0-.31.2-.51.51-.51h10.1c.31,0,.51.2.51.51v14.15c0,.31.2.51.51.51h9.59c.31,0,.51.2.51.51v8.05c0,.31-.21.51-.51.51h-9.59c-.31,0-.51.2-.51.51v28.14c0,3.33.92,4.25,4.26,4.25h5.84c.31,0,.51.21.51.51v8.97c0,.31-.21.51-.51.51h-10.56c-7.48,0-11.23-3.64-11.23-11.23Z"/>
        <path class="cls-2" d="M303.89,79.31c0-16.61,10.71-27.07,25.07-27.07,6,0,11.38,1.9,14.97,5.38.31.31.62.21.72-.15l.97-3.74c.05-.26.26-.46.56-.46h9.38c.31,0,.51.2.51.51v50.96c0,.31-.2.51-.51.51h-9.38c-.31,0-.46-.15-.56-.41l-1.23-4.2c-.1-.36-.36-.51-.62-.26-3.54,3.79-9.07,5.89-15.28,5.89-13.89,0-24.61-10.25-24.61-26.97ZM345,79.31c0-10.51-6.31-17.33-14.71-17.33s-14.76,6.82-14.76,17.33,6.31,17.22,14.76,17.22,14.71-6.66,14.71-17.22Z"/>
        <path class="cls-1" d="M362.89,79.26c0-16.56,10.66-27.02,25.99-27.02,14.35,0,24.5,9.18,24.56,26.66l-.1,3.49c0,.36-.2.51-.51.51h-38.04c-.31,0-.56.2-.51.56,1.33,8.97,6.87,13.59,14.71,13.59,5.18,0,9.64-2.26,11.94-7.95.1-.26.31-.41.56-.41h10.46c.36,0,.51.26.41.67-3.13,12.05-12.3,16.92-23.53,16.92-15.89,0-25.94-10.46-25.94-27.02ZM375.14,73.42h26.4c.31,0,.56-.21.46-.56-1.13-7.43-6.1-11.43-12.92-11.43-7.64,0-12.66,4.26-14.41,11.43-.05.36.1.56.46.56Z"/>
        <path class="cls-1" d="M420.19,104.74V32.25c0-.31.2-.51.51-.51h10.66c.31,0,.51.21.51.51v72.49c0,.31-.2.51-.51.51h-10.66c-.31,0-.51-.2-.51-.51Z"/>
        <path class="cls-1" d="M438.64,79.31c0-16.61,10.71-27.07,25.07-27.07,6,0,11.38,1.9,14.97,5.38.31.31.62.21.72-.15l.97-3.74c.05-.26.26-.46.56-.46h9.38c.31,0,.51.2.51.51v50.96c0,.31-.2.51-.51.51h-9.38c-.31,0-.46-.15-.56-.41l-1.23-4.2c-.1-.36-.36-.51-.62-.26-3.54,3.79-9.07,5.89-15.28,5.89-13.89,0-24.61-10.25-24.61-26.97ZM479.76,79.31c0-10.51-6.31-17.33-14.71-17.33s-14.76,6.82-14.76,17.33,6.31,17.22,14.76,17.22,14.71-6.66,14.71-17.22Z"/>
        <path class="cls-1" d="M499.85,104.74v-50.96c0-.31.2-.51.51-.51h9.48c.31,0,.51.2.56.46l.87,3.13c.1.36.36.46.67.2,3.84-3.38,8.82-4.82,14.15-4.82,13.53,0,21.53,6.82,21.53,19.69v32.81c0,.31-.2.51-.51.51h-10.61c-.31,0-.51-.2-.51-.51v-30.76c0-7.69-4.41-12-12.2-12s-12.25,4.82-12.25,12.82v29.94c0,.31-.2.51-.51.51h-10.66c-.31,0-.51-.2-.51-.51Z"/>
      </g>
      <g>
        <path class="cls-1" d="M57.42,105.62c-19.45,0-35.27-15.83-35.28-35.28v-26.02c0-7.83,2.57-15.07,6.9-20.92-8.71,6.43-14.36,16.76-14.36,28.38v26.01c0,19.45,15.82,35.28,35.28,35.28h26.01c9.73,0,18.55-3.96,24.94-10.35,1.25-1.25,2.4-2.58,3.45-4.01-5.85,4.33-13.09,6.89-20.92,6.89h-26.02Z"/>
        <path class="cls-1" d="M42.74,120.31c-19.45,0-35.27-15.83-35.28-35.28v-26.02c0-7.83,2.57-15.07,6.9-20.92C5.65,44.53,0,54.86,0,66.48v26.01c0,19.45,15.82,35.28,35.28,35.28h26.01c9.73,0,18.55-3.96,24.94-10.35,1.25-1.25,2.4-2.58,3.45-4.01-5.85,4.33-13.09,6.89-20.92,6.89h-26.02Z"/>
        <path class="cls-1" d="M117.43,86.22c-6.39,6.39-15.21,10.34-24.93,10.34h-26.02c-19.45,0-35.27-15.82-35.27-35.27v-26.02c0-19.45,15.82-35.27,35.27-35.27h26.02c9.42,0,18.28,3.67,24.94,10.33,6.66,6.66,10.33,15.52,10.33,24.94v26.02c0,9.72-3.96,18.54-10.34,24.93ZM92.5,81.5c11.14,0,20.21-9.07,20.21-20.21v-26.02c0-5.4-2.1-10.48-5.92-14.29s-8.89-5.92-14.29-5.92h-26.02c-11.14,0-20.21,9.07-20.21,20.21v26.02c0,11.15,9.07,20.21,20.21,20.21h26.02Z"/>
        <path class="cls-1" d="M92.51,42.81v10.93c0,6.43-5.2,11.66-11.64,11.66-2.75,0-5.51-.02-8.26-.03-1.92,0-3.47-1.56-3.47-3.48v-27.21c0-1.92,1.55-3.47,3.47-3.48,2.75,0,5.51-.02,8.26-.03,6.43,0,11.64,5.2,11.64,11.64Z"/>
      </g>
    </g>
  </g>
</svg>