<?xml version="1.0" encoding="UTF-8"?>
<svg id="Layer_3" data-name="Layer 3" xmlns="http://www.w3.org/2000/svg" viewBox="0 0 345.23 195.17">
  <defs>
    <style>
      .cls-1 {
        fill: #a76052;
      }

      .cls-2 {
        fill: #192026;
      }
    </style>
  </defs>
  <g id="Layer_1" data-name="Layer 1">
    <g>
      <g>
        <path class="cls-2" d="M0,193.85v-62.19c0-.26.18-.44.44-.44h20.1c17.68,0,30,11.83,30,31.49s-12.32,31.58-30,31.58H.44c-.26,0-.44-.18-.44-.44ZM40.07,162.71c0-13.94-7.65-22.26-19.53-22.26h-9.68c-.26,0-.44.18-.44.44v43.76c0,.26.18.44.44.44h9.68c11.88,0,19.53-8.36,19.53-22.39Z"/>
        <path class="cls-2" d="M56.29,172.04c0-14.25,9.19-23.22,21.51-23.22,5.15,0,9.76,1.63,12.84,4.62.26.26.53.18.62-.13l.83-3.21c.04-.22.22-.4.48-.4h8.05c.26,0,.44.18.44.44v43.72c0,.26-.18.44-.44.44h-8.05c-.26,0-.4-.13-.48-.35l-1.06-3.61c-.09-.31-.31-.44-.53-.22-3.04,3.25-7.78,5.06-13.11,5.06-11.92,0-21.11-8.8-21.11-23.14ZM91.57,172.04c0-9.02-5.41-14.87-12.62-14.87s-12.67,5.85-12.67,14.87,5.41,14.78,12.67,14.78,12.62-5.72,12.62-14.78Z"/>
        <path class="cls-2" d="M115.09,184.66v-26.74c0-.26-.18-.44-.44-.44h-8.27c-.26,0-.44-.18-.44-.44v-6.91c0-.26.18-.44.44-.44h4.44c3.04,0,4.75-1.72,4.75-4.79v-7.78c0-.26.18-.44.44-.44h8.66c.26,0,.44.18.44.44v12.14c0,.26.18.44.44.44h8.22c.26,0,.44.18.44.44v6.91c0,.26-.18.44-.44.44h-8.22c-.26,0-.44.18-.44.44v24.15c0,2.86.79,3.65,3.65,3.65h5.01c.26,0,.44.18.44.44v7.7c0,.26-.18.44-.44.44h-9.06c-6.42,0-9.63-3.12-9.63-9.63Z"/>
        <path class="cls-2" d="M136.11,172.04c0-14.25,9.19-23.22,21.51-23.22,5.15,0,9.76,1.63,12.84,4.62.26.26.53.18.62-.13l.84-3.21c.04-.22.22-.4.48-.4h8.05c.26,0,.44.18.44.44v43.72c0,.26-.18.44-.44.44h-8.05c-.26,0-.4-.13-.48-.35l-1.06-3.61c-.09-.31-.31-.44-.53-.22-3.03,3.25-7.78,5.06-13.11,5.06-11.92,0-21.11-8.8-21.11-23.14ZM171.38,172.04c0-9.02-5.41-14.87-12.62-14.87s-12.67,5.85-12.67,14.87,5.41,14.78,12.67,14.78,12.62-5.72,12.62-14.78Z"/>
        <path class="cls-1" d="M186.73,171.99c0-14.21,9.15-23.18,22.3-23.18,12.32,0,21.02,7.87,21.07,22.87l-.09,2.99c0,.31-.18.44-.44.44h-32.64c-.26,0-.48.18-.44.48,1.14,7.7,5.89,11.66,12.62,11.66,4.44,0,8.27-1.94,10.25-6.82.09-.22.26-.35.48-.35h8.97c.31,0,.44.22.35.57-2.68,10.34-10.56,14.51-20.19,14.51-13.63,0-22.26-8.97-22.26-23.18ZM197.24,166.98h22.65c.26,0,.48-.18.4-.48-.97-6.38-5.23-9.81-11.08-9.81-6.55,0-10.86,3.65-12.36,9.81-.04.31.09.48.4.48Z"/>
        <path class="cls-1" d="M235.89,193.85v-62.19c0-.26.18-.44.44-.44h9.15c.26,0,.44.18.44.44v62.19c0,.26-.18.44-.44.44h-9.15c-.26,0-.44-.18-.44-.44Z"/>
        <path class="cls-1" d="M251.73,172.04c0-14.25,9.19-23.22,21.51-23.22,5.15,0,9.76,1.63,12.84,4.62.26.26.53.18.62-.13l.84-3.21c.04-.22.22-.4.48-.4h8.05c.26,0,.44.18.44.44v43.72c0,.26-.18.44-.44.44h-8.05c-.26,0-.4-.13-.48-.35l-1.06-3.61c-.09-.31-.31-.44-.53-.22-3.03,3.25-7.78,5.06-13.11,5.06-11.92,0-21.11-8.8-21.11-23.14ZM287,172.04c0-9.02-5.41-14.87-12.62-14.87s-12.67,5.85-12.67,14.87,5.41,14.78,12.67,14.78,12.62-5.72,12.62-14.78Z"/>
        <path class="cls-1" d="M304.24,193.85v-43.72c0-.26.18-.44.44-.44h8.14c.26,0,.44.18.48.4l.75,2.68c.09.31.31.4.57.18,3.3-2.9,7.57-4.13,12.14-4.13,11.61,0,18.47,5.85,18.47,16.89v28.15c0,.26-.18.44-.44.44h-9.11c-.26,0-.44-.18-.44-.44v-26.39c0-6.6-3.78-10.29-10.47-10.29s-10.51,4.13-10.51,11v25.69c0,.26-.18.44-.44.44h-9.15c-.26,0-.44-.18-.44-.44Z"/>
      </g>
      <g>
        <path class="cls-1" d="M166.8,95.13c-17.52,0-31.77-14.26-31.77-31.77v-23.43c0-7.05,2.31-13.57,6.21-18.84-7.84,5.79-12.93,15.1-12.93,25.57v23.43c0,17.52,14.25,31.77,31.77,31.77h23.43c8.76,0,16.7-3.56,22.46-9.32,1.12-1.12,2.16-2.33,3.11-3.61-5.27,3.9-11.79,6.21-18.84,6.21h-23.43Z"/>
        <path class="cls-1" d="M153.57,108.36c-17.52,0-31.77-14.26-31.77-31.77v-23.43c0-7.05,2.31-13.57,6.21-18.84-7.84,5.79-12.93,15.1-12.93,25.57v23.43c0,17.52,14.25,31.77,31.77,31.77h23.43c8.76,0,16.7-3.56,22.46-9.32,1.12-1.12,2.16-2.33,3.11-3.61-5.27,3.9-11.79,6.21-18.84,6.21h-23.43Z"/>
        <path class="cls-1" d="M220.84,77.66c-5.75,5.75-13.7,9.32-22.45,9.32h-23.43c-17.52,0-31.77-14.25-31.77-31.77v-23.43c0-17.52,14.25-31.77,31.77-31.77h23.43c8.49,0,16.46,3.3,22.46,9.31,6,6,9.31,13.98,9.31,22.46v23.43c0,8.76-3.56,16.7-9.32,22.45ZM198.38,73.41c10.04,0,18.21-8.17,18.21-18.21v-23.43c0-4.86-1.89-9.43-5.33-12.87-3.44-3.44-8.01-5.33-12.87-5.33h-23.43c-10.04,0-18.21,8.17-18.21,18.21v23.43c0,10.04,8.17,18.2,18.21,18.21h23.43Z"/>
        <path class="cls-1" d="M198.4,38.56v9.84c0,5.79-4.69,10.5-10.48,10.5-2.48,0-4.96-.02-7.44-.02-1.73,0-3.12-1.41-3.12-3.13v-24.5c0-1.73,1.4-3.13,3.12-3.13,2.48,0,4.96-.02,7.44-.02,5.79,0,10.48,4.69,10.48,10.48Z"/>
      </g>
    </g>
  </g>
</svg>