<?xml version="1.0" encoding="UTF-8"?>
<svg id="Layer_3" data-name="Layer 3" xmlns="http://www.w3.org/2000/svg" viewBox="0 0 519.32 96.2">
  <defs>
    <style>
      .cls-1 {
        fill: #a76052;
      }

      .cls-2 {
        fill: #192026;
      }
    </style>
  </defs>
  <g id="Layer_1" data-name="Layer 1">
    <g>
      <path class="cls-2" d="M0,94.22V.66c0-.4.26-.66.66-.66h30.24c26.6,0,45.12,17.8,45.12,47.37s-18.53,47.51-45.12,47.51H.66c-.4,0-.66-.26-.66-.66ZM60.27,47.37c0-20.97-11.51-33.48-29.38-33.48h-14.55c-.4,0-.66.27-.66.66v65.83c0,.4.26.66.66.66h14.55c17.86,0,29.38-12.57,29.38-33.68Z"/>
      <path class="cls-2" d="M84.68,61.4c0-21.44,13.83-34.93,32.35-34.93,7.74,0,14.69,2.45,19.32,6.95.4.4.79.27.93-.2l1.26-4.83c.07-.33.33-.6.73-.6h12.11c.4,0,.66.26.66.66v65.77c0,.4-.26.66-.66.66h-12.11c-.4,0-.6-.2-.73-.53l-1.59-5.43c-.13-.46-.46-.66-.79-.33-4.57,4.9-11.71,7.61-19.72,7.61-17.93,0-31.76-13.23-31.76-34.8ZM137.74,61.4c0-13.56-8.14-22.36-18.99-22.36s-19.06,8.8-19.06,22.36,8.14,22.23,19.06,22.23,18.99-8.6,18.99-22.23Z"/>
      <path class="cls-2" d="M173.13,80.39v-40.23c0-.4-.27-.66-.66-.66h-12.44c-.4,0-.66-.26-.66-.66v-10.39c0-.4.26-.66.66-.66h6.68c4.57,0,7.15-2.58,7.15-7.21v-11.71c0-.4.26-.66.66-.66h13.03c.4,0,.66.26.66.66v18.26c0,.4.26.66.66.66h12.37c.4,0,.66.26.66.66v10.39c0,.4-.27.66-.66.66h-12.37c-.4,0-.66.26-.66.66v36.32c0,4.3,1.19,5.49,5.49,5.49h7.54c.4,0,.66.27.66.66v11.58c0,.4-.27.66-.66.66h-13.63c-9.66,0-14.49-4.7-14.49-14.49Z"/>
      <path class="cls-2" d="M204.75,61.4c0-21.44,13.83-34.93,32.35-34.93,7.74,0,14.69,2.45,19.32,6.95.4.4.79.27.93-.2l1.26-4.83c.07-.33.33-.6.73-.6h12.11c.4,0,.66.26.66.66v65.77c0,.4-.26.66-.66.66h-12.11c-.4,0-.6-.2-.73-.53l-1.59-5.43c-.13-.46-.46-.66-.79-.33-4.56,4.9-11.71,7.61-19.72,7.61-17.93,0-31.76-13.23-31.76-34.8ZM257.81,61.4c0-13.56-8.14-22.36-18.99-22.36s-19.06,8.8-19.06,22.36,8.14,22.23,19.06,22.23,18.99-8.6,18.99-22.23Z"/>
      <path class="cls-1" d="M280.89,61.33c0-21.37,13.76-34.87,33.54-34.87,18.53,0,31.63,11.84,31.69,34.41l-.13,4.5c0,.46-.26.66-.66.66h-49.09c-.4,0-.73.26-.66.73,1.72,11.58,8.87,17.53,18.99,17.53,6.68,0,12.44-2.91,15.42-10.26.13-.33.4-.53.73-.53h13.5c.46,0,.66.33.53.86-4.04,15.55-15.88,21.83-30.37,21.83-20.51,0-33.48-13.5-33.48-34.87ZM296.7,53.79h34.07c.4,0,.73-.27.6-.73-1.46-9.59-7.87-14.76-16.67-14.76-9.86,0-16.34,5.49-18.59,14.76-.07.46.13.73.6.73Z"/>
      <path class="cls-1" d="M354.85,94.22V.66c0-.4.26-.66.66-.66h13.76c.4,0,.66.27.66.66v93.56c0,.4-.26.66-.66.66h-13.76c-.4,0-.66-.26-.66-.66Z"/>
      <path class="cls-1" d="M378.67,61.4c0-21.44,13.83-34.93,32.35-34.93,7.74,0,14.69,2.45,19.32,6.95.4.4.79.27.93-.2l1.26-4.83c.07-.33.33-.6.73-.6h12.11c.4,0,.66.26.66.66v65.77c0,.4-.26.66-.66.66h-12.11c-.4,0-.6-.2-.73-.53l-1.59-5.43c-.13-.46-.46-.66-.79-.33-4.56,4.9-11.71,7.61-19.72,7.61-17.93,0-31.76-13.23-31.76-34.8ZM431.73,61.4c0-13.56-8.14-22.36-18.99-22.36s-19.06,8.8-19.06,22.36,8.14,22.23,19.06,22.23,18.99-8.6,18.99-22.23Z"/>
      <path class="cls-1" d="M457.66,94.22V28.45c0-.4.26-.66.66-.66h12.24c.4,0,.66.26.73.6l1.13,4.04c.13.46.46.6.86.26,4.96-4.37,11.38-6.22,18.26-6.22,17.47,0,27.79,8.8,27.79,25.41v42.34c0,.4-.26.66-.66.66h-13.7c-.4,0-.66-.26-.66-.66v-39.7c0-9.92-5.69-15.48-15.75-15.48s-15.81,6.22-15.81,16.54v38.64c0,.4-.26.66-.66.66h-13.76c-.4,0-.66-.26-.66-.66Z"/>
    </g>
  </g>
</svg>